<svg fill="none" height="496" viewBox="0 0 679 496" width="679" xmlns="http://www.w3.org/2000/svg" xmlns:xlink="http://www.w3.org/1999/xlink"><filter id="a" color-interpolation-filters="sRGB" filterUnits="userSpaceOnUse" height="221" width="82" x="177" y="0"><feFlood flood-opacity="0" result="BackgroundImageFix"/><feBlend in="SourceGraphic" in2="BackgroundImageFix" mode="normal" result="shape"/><feGaussianBlur result="effect1_foregroundBlur_40_2" stdDeviation="2"/></filter><filter id="b" color-interpolation-filters="sRGB" filterUnits="userSpaceOnUse" height="207.063" width="185.879" x="248.102" y="48.7511"><feFlood flood-opacity="0" result="BackgroundImageFix"/><feBlend in="SourceGraphic" in2="BackgroundImageFix" mode="normal" result="shape"/><feGaussianBlur result="effect1_foregroundBlur_40_2" stdDeviation="2"/></filter><filter id="c" color-interpolation-filters="sRGB" filterUnits="userSpaceOnUse" height="184.994" width="172.968" x="261.225" y="259.225"><feFlood flood-opacity="0" result="BackgroundImageFix"/><feBlend in="SourceGraphic" in2="BackgroundImageFix" mode="normal" result="shape"/><feGaussianBlur result="effect1_foregroundBlur_40_2" stdDeviation="2"/></filter><filter id="d" color-interpolation-filters="sRGB" filterUnits="userSpaceOnUse" height="221" width="82" x="177" y="275"><feFlood flood-opacity="0" result="BackgroundImageFix"/><feBlend in="SourceGraphic" in2="BackgroundImageFix" mode="normal" result="shape"/><feGaussianBlur result="effect1_foregroundBlur_40_2" stdDeviation="2"/></filter><filter id="e" color-interpolation-filters="sRGB" filterUnits="userSpaceOnUse" height="428" width="428" x="0" y="34"><feFlood flood-opacity="0" result="BackgroundImageFix"/><feColorMatrix in="SourceAlpha" result="hardAlpha" type="matrix" values="0 0 0 0 0 0 0 0 0 0 0 0 0 0 0 0 0 0 127 0"/><feOffset/><feGaussianBlur stdDeviation="2.25"/><feColorMatrix type="matrix" values="0 0 0 0 0.827451 0 0 0 0 0.113725 0 0 0 0 0.113725 0 0 0 1 0"/><feBlend in2="BackgroundImageFix" mode="normal" result="effect1_dropShadow_40_2"/><feColorMatrix in="SourceAlpha" result="hardAlpha" type="matrix" values="0 0 0 0 0 0 0 0 0 0 0 0 0 0 0 0 0 0 127 0"/><feOffset/><feGaussianBlur stdDeviation="4.5"/><feColorMatrix type="matrix" values="0 0 0 0 0.827451 0 0 0 0 0.113725 0 0 0 0 0.113725 0 0 0 1 0"/><feBlend in2="effect1_dropShadow_40_2" mode="normal" result="effect2_dropShadow_40_2"/><feColorMatrix in="SourceAlpha" result="hardAlpha" type="matrix" values="0 0 0 0 0 0 0 0 0 0 0 0 0 0 0 0 0 0 127 0"/><feOffset/><feGaussianBlur stdDeviation="15.75"/><feColorMatrix type="matrix" values="0 0 0 0 0.827451 0 0 0 0 0.113725 0 0 0 0 0.113725 0 0 0 1 0"/><feBlend in2="effect2_dropShadow_40_2" mode="normal" result="effect3_dropShadow_40_2"/><feColorMatrix in="SourceAlpha" result="hardAlpha" type="matrix" values="0 0 0 0 0 0 0 0 0 0 0 0 0 0 0 0 0 0 127 0"/><feOffset/><feGaussianBlur stdDeviation="31.5"/><feColorMatrix type="matrix" values="0 0 0 0 0.827451 0 0 0 0 0.113725 0 0 0 0 0.113725 0 0 0 1 0"/><feBlend in2="effect3_dropShadow_40_2" mode="normal" result="effect4_dropShadow_40_2"/><feColorMatrix in="SourceAlpha" result="hardAlpha" type="matrix" values="0 0 0 0 0 0 0 0 0 0 0 0 0 0 0 0 0 0 127 0"/><feOffset/><feGaussianBlur stdDeviation="54"/><feColorMatrix type="matrix" values="0 0 0 0 0.827451 0 0 0 0 0.113725 0 0 0 0 0.113725 0 0 0 1 0"/><feBlend in2="effect4_dropShadow_40_2" mode="normal" result="effect5_dropShadow_40_2"/><feColorMatrix in="SourceAlpha" result="hardAlpha" type="matrix" values="0 0 0 0 0 0 0 0 0 0 0 0 0 0 0 0 0 0 127 0"/><feOffset/><feGaussianBlur stdDeviation="94.5"/><feColorMatrix type="matrix" values="0 0 0 0 0.827451 0 0 0 0 0.113725 0 0 0 0 0.113725 0 0 0 1 0"/><feBlend in2="effect5_dropShadow_40_2" mode="normal" result="effect6_dropShadow_40_2"/><feBlend in="SourceGraphic" in2="effect6_dropShadow_40_2" mode="normal" result="shape"/><feGaussianBlur result="effect7_foregroundBlur_40_2" stdDeviation="2"/></filter><filter id="f" color-interpolation-filters="sRGB" filterUnits="userSpaceOnUse" height="358" width="183" x="496" y="79"><feFlood flood-opacity="0" result="BackgroundImageFix"/><feBlend in="SourceGraphic" in2="BackgroundImageFix" mode="normal" result="shape"/><feGaussianBlur result="effect1_foregroundBlur_40_2" stdDeviation="2"/></filter><filter id="g" color-interpolation-filters="sRGB" filterUnits="userSpaceOnUse" height="370" width="195" x="451" y="52"><feFlood flood-opacity="0" result="BackgroundImageFix"/><feBlend in="SourceGraphic" in2="BackgroundImageFix" mode="normal" result="shape"/><feGaussianBlur result="effect1_foregroundBlur_40_2" stdDeviation="5"/></filter><linearGradient id="h" gradientUnits="userSpaceOnUse" x1="218" x2="218" y1="4" y2="217"><stop offset="0" stop-color="#4de2ca"/><stop offset=".86" stop-color="#86a2f7"/></linearGradient><linearGradient id="i" gradientUnits="userSpaceOnUse" x1="425.16" x2="425.16" y1="37.6487" y2="274.224"><stop offset="0" stop-color="#b49efc"/><stop offset=".5" stop-color="#b5b3f8"/><stop offset="1" stop-color="#f79db9"/></linearGradient><linearGradient id="j" gradientUnits="userSpaceOnUse" x1="482.418" x2="482.418" y1="617.87" y2="406.457"><stop offset="0" stop-color="#78ebf2"/><stop offset=".5" stop-color="#99c5f7"/><stop offset="1" stop-color="#ba9efc"/></linearGradient><linearGradient id="k" gradientUnits="userSpaceOnUse" x1="218" x2="218" y1="279" y2="492"><stop offset="0" stop-color="#89f7a0"/><stop offset="1" stop-color="#f0f88f"/></linearGradient><linearGradient id="l" gradientUnits="userSpaceOnUse" x1="214" x2="214" y1="223" y2="273"><stop offset="0" stop-color="#6d55d9"/><stop offset=".0001" stop-color="#f11010"/></linearGradient><linearGradient id="m" gradientUnits="userSpaceOnUse" x1="500" x2="500" y1="83" y2="433"><stop offset="0" stop-color="#78ebf2"/><stop offset="1" stop-color="#ba9efc"/></linearGradient><linearGradient id="n" gradientUnits="userSpaceOnUse" x1="461" x2="461" y1="62" y2="412"><stop offset="0" stop-color="#f68e9c"/><stop offset=".5" stop-color="#f9b0c0"/><stop offset="1" stop-color="#f7f48b"/></linearGradient><mask id="o" fill="#fff"><path d="m461 412c22.981 0 45.738-4.527 66.97-13.321 21.232-8.795 40.523-21.685 56.774-37.935 16.25-16.251 29.14-35.542 37.935-56.774s13.321-43.989 13.321-66.97-4.527-45.738-13.321-66.97c-8.795-21.232-21.685-40.523-37.935-56.774-16.251-16.25-35.542-29.1404-56.774-37.9349-21.232-8.7946-43.989-13.3211-66.97-13.3211v175z" fill="#fff"/></mask><g filter="url(#a)"><rect fill="url(#h)" height="213" rx="37" width="74" x="181" y="4"/></g><g filter="url(#b)"><rect fill="url(#i)" height="236.575" rx="37" transform="matrix(.76924903 .63894909 -.63894909 .76924903 113.6239 -239.327003)" width="74" x="388.16" y="37.6487"/></g><g filter="url(#c)"><rect fill="url(#j)" height="211.414" rx="37" transform="matrix(-.74951057 .66199237 -.66199237 -.74951057 1048.334934 416.237501)" width="74" x="445.418" y="406.457"/></g><g filter="url(#d)"><rect fill="url(#k)" height="213" rx="37" width="74" x="181" y="279"/></g><g filter="url(#e)"><circle cx="214" cy="248" fill="url(#l)" r="25"/></g><g filter="url(#f)"><path d="m500 433c22.981 0 45.738-4.527 66.97-13.321 21.232-8.795 40.523-21.685 56.774-37.935 16.25-16.251 29.14-35.542 37.935-56.774s13.321-43.989 13.321-66.97-4.527-45.738-13.321-66.97c-8.795-21.232-21.685-40.523-37.935-56.774-16.251-16.25-35.542-29.14-56.774-37.9349-21.232-8.7946-43.989-13.3211-66.97-13.3211v175z" fill="url(#m)"/></g><g filter="url(#g)"><path d="m461 412c22.981 0 45.738-4.527 66.97-13.321 21.232-8.795 40.523-21.685 56.774-37.935 16.25-16.251 29.14-35.542 37.935-56.774s13.321-43.989 13.321-66.97-4.527-45.738-13.321-66.97c-8.795-21.232-21.685-40.523-37.935-56.774-16.251-16.25-35.542-29.1404-56.774-37.9349-21.232-8.7946-43.989-13.3211-66.97-13.3211v175z" fill="url(#n)"/><path d="m461 412c22.981 0 45.738-4.527 66.97-13.321 21.232-8.795 40.523-21.685 56.774-37.935 16.25-16.251 29.14-35.542 37.935-56.774s13.321-43.989 13.321-66.97-4.527-45.738-13.321-66.97c-8.795-21.232-21.685-40.523-37.935-56.774-16.251-16.25-35.542-29.1404-56.774-37.9349-21.232-8.7946-43.989-13.3211-66.97-13.3211v175z" mask="url(#o)" stroke="#000" stroke-width="2"/></g></svg>